<?xml version="1.0" encoding="iso-8859-1"?>
<!-- Generator: Adobe Illustrator 19.0.0, SVG Export Plug-In . SVG Version: 6.00 Build 0)  -->
<svg version="1.1" id="Capa_1" xmlns="http://www.w3.org/2000/svg" xmlns:xlink="http://www.w3.org/1999/xlink" x="0px" y="0px"
	 viewBox="0 0 512.001 512.001" style="enable-background:new 0 0 512.001 512.001;" xml:space="preserve" fill="white">
<g>
	<g>
		<path d="M336.837,311.754c-2.457-15.316-16.865-25.74-32.181-23.284c-15.316,2.457-25.742,16.865-23.284,32.181
			c0.27,1.685,0.693,3.305,1.237,4.86l13.403,4.268l39.924-5.268C337.177,320.51,337.545,316.17,336.837,311.754z"/>
	</g>
</g>
<g>
	<g>
		<path d="M258.144,345.505l30.28,20.638c2.801,1.909,6.205,2.716,9.555,2.273l78.909-10.413
			c7.373-0.972,12.991-7.477,12.345-14.885c-0.686-7.867-7.782-13.496-15.519-12.471l-74.111,9.78
			c-0.011,0.001-0.021-0.001-0.031-0.007c-5.375-3.664-23.321-15.918-34.055-23.247c-5.337-3.644-11.863-5.094-18.242-4.054
			c-28.117,4.584-106.239,17.32-106.378,17.344c-0.002,0-0.001,0-0.003,0.001l-50.267,15.751c-0.007,0.002-0.014,0.003-0.021,0.001
			l-71.632-12.456c-8.811-1.53-17.2,4.37-18.733,13.183c-1.532,8.813,4.37,17.2,13.183,18.733l75.511,13.13
			c2.534,0.442,5.149,0.272,7.618-0.501l49.479-15.504c0.026-0.008,0.053,0.009,0.058,0.036l1.758,10.962
			c0.003,0.022-0.01,0.043-0.031,0.05l-47.953,15.025c-4.145,1.299-8.545,1.589-12.827,0.844
			c-81.86-14.234-77.316-13.216-80.892-14.645c-0.024-0.01-0.053,0.001-0.063,0.025c-0.369,0.964-0.654,1.975-0.838,3.03
			c-1.532,8.813,4.37,17.2,13.183,18.733l75.511,13.13c2.534,0.442,5.149,0.272,7.618-0.501
			c64.045-20.068,59.647-18.644,60.842-19.166c0.004-0.002,0.008-0.003,0.012-0.004l87.729-14.074
			c0.015-0.002,0.029,0.001,0.039,0.013c0.173,0.21,3.101,2.714,52.274,29.83c3.454,1.904,7.625,2.268,11.443,0.85l58.65-21.787
			c6.775-2.517,10.379-9.799,8.446-16.635c-0.006-0.023-0.03-0.037-0.053-0.032c-1.686,0.377,4.809-0.53-86.713,11.548
			c-4.723,0.623-9.206-1.342-12.015-4.778c-12.445-15.308-18.06-22.215-24.13-29.682
			C258.051,345.531,258.101,345.475,258.144,345.505z"/>
	</g>
</g>
<g>
	<g>
		<path d="M507.33,354.308l-42.863-44.232l-16.75,2.436l28.949,38.439c5.558,7.38,7.212,16.481,5.325,24.837
			c1.735,1.79,5.729,6.625,13.439,6.625c4.154,0,8.313-1.552,11.532-4.671C513.534,371.373,513.699,360.881,507.33,354.308z"/>
	</g>
</g>
<g>
	<g>
		<path d="M510.538,289.242c-0.189-3.026-15.974-107.253-15.974-107.253c-1.237-9.277-9.759-15.796-19.037-14.56l-38.156,5.086
			c-4.814,0.642-8.873,3.255-11.503,6.909l-39.388,10.681l-10.721-7.807l-18.936,18.927L367.497,209
			c3.961-1.053,8.241-1.124,12.486,0.004l19.123,5.082l25.776-6.989l1.082,8.12l15.751-16.955l-19.388,33.517l-45.204-12.012
			c-7.064-1.878-14.301,2.326-16.177,9.385c-1.876,7.059,2.326,14.3,9.384,16.176l54.981,14.61
			c5.773,1.535,11.855-0.993,14.843-6.159l24.455-42.274l-14.815,47.85c-1.102,3.56-3.172,6.55-5.826,8.784l38.751,6.172
			l-89.444-0.605c-0.038,0-0.075,0-0.114,0c-13.673,0-21.429,15.664-13.237,26.542l59.379,78.843
			c5.508,7.313,15.9,8.773,23.208,3.268c7.311-5.507,8.775-15.897,3.269-23.209l-39.216-52.074c0,0,42.504-0.276,68.469-0.258
			C506.258,306.825,511.109,298.378,510.538,289.242z"/>
	</g>
</g>
<g>
	<g>
		<circle cx="440.546" cy="130.093" r="28.321"/>
	</g>
</g>
<g>
	<g>
		<path d="M365.724,170.057l-0.025-0.022c-3.802-3.748-9.857-29.434-15.908-35.4c-6.302-6.214-14.425-9.345-22.364-9.345
			c-7.43,0-14.698,2.746-20.152,8.276c-11.279,11.44-10.533,30.465,1.669,42.496c6.138,6.051,31.903,11.53,35.607,15.18l0.021,0.021
			c1.563,1.541,4.082,1.553,5.659,0.005c4.047-3.973,11.442-11.268,15.561-15.536C367.329,174.141,367.299,171.61,365.724,170.057z"
			/>
	</g>
</g>
<g>
</g>
<g>
</g>
<g>
</g>
<g>
</g>
<g>
</g>
<g>
</g>
<g>
</g>
<g>
</g>
<g>
</g>
<g>
</g>
<g>
</g>
<g>
</g>
<g>
</g>
<g>
</g>
<g>
</g>
</svg>
