<?xml version="1.0" encoding="iso-8859-1"?>
<!-- Generator: Adobe Illustrator 19.0.0, SVG Export Plug-In . SVG Version: 6.00 Build 0)  -->
<svg version="1.1" id="Capa_1" xmlns="http://www.w3.org/2000/svg" xmlns:xlink="http://www.w3.org/1999/xlink" x="0px" y="0px"
	 viewBox="0 0 512.001 512.001" style="enable-background:new 0 0 512.001 512.001;" xml:space="preserve" fill="white">
<g>
	<g>
		<path d="M282.304,58.396c-4.822,12.264-16.318,20.914-29.7,20.914s-24.877-8.65-29.698-20.914c-12.494,0-9.388,0-21.742,0
			c0.637,21.971,18.636,39.588,40.761,39.588c22.125,0,40.122-17.618,40.761-39.588H282.304z"/>
	</g>
</g>
<g>
	<g>
		<path d="M276.518,248.607l-2.855,6.321c2.429,5.339,2.781,11.603,0.511,17.454c-3.333,8.592-11.765,14.363-20.98,14.363
			c-5.296,0-7.223-1.171-20.957-6.499c-11.567-4.489-17.326-17.551-12.838-29.117c1.211-3.119,3.056-5.826,5.336-8.038
			c-7.227-5.784-12.105-14.452-12.785-24.414c-1.287-18.875,12.971-35.218,31.845-36.505l6.325-0.431
			c2.478-7.584,20.612-63.084,23.117-70.752c-4.758,0-78.929,0-83.98,0c-25.555,0-46.812,20.789-46.939,46.343v144.594
			c-0.055,10.87,8.349,19.726,19.219,19.78c0.034,0,0.067,0,0.101,0c10.824,0,19.989-8.747,20.043-19.583V157.527
			c-0.012-0.628,0.03-1.202,0.119-1.726c0.353-2.079,2.24-3.541,4.341-3.362c2.101,0.178,3.712,1.937,3.712,4.046v331.898
			c0,13.043,10.574,23.618,23.618,23.618c13.043,0,23.618-10.574,23.618-23.618V299.602h10.197v188.781
			c0,13.043,10.574,23.618,23.618,23.618c13.044,0,23.618-10.574,23.618-23.618l0.009-241.004L276.518,248.607z"/>
	</g>
</g>
<g>
	<g>
		<path d="M244.174,0c-16.869,0-31.622,10.654-38.638,26.289h-35.209c-4.798,0-8.688,4.231-8.688,9.451
			c-0.001,5.22,3.888,9.452,8.687,9.452h49.655h13.725c-0.002,0.114-0.016,0.224-0.016,0.339c0,11.363,8.468,20.575,18.914,20.575
			c10.446,0,18.914-9.212,18.914-20.575c0-0.114-0.014-0.224-0.016-0.339h12.556c1.724,0,3.09-1.483,2.926-3.219
			C284.782,18.566,266.629,0,244.174,0z"/>
	</g>
</g>
<g>
	<g>
		<path d="M366.791,199.024l-38.992-64.009l-19.619,43.458c2.462,4.043,7.921,13.004,8.138,13.359
			c-17.827,1.216-13.864,0.945-31.335,2.137l55.689-123.355c1.787-3.883-0.051-8.514-4.082-10.08l-20.455-7.937
			c-0.004-0.001-0.008-0.002-0.012-0.004c-3.957-1.529-8.485,0.577-9.8,4.692l-45.191,138.31
			c-0.819,0.056-15.597,1.063-16.343,1.114c-10.845,0.74-19.036,10.13-18.297,20.975c0.701,10.269,9.424,19.093,21.454,18.265
			l-5.215,15.962c-3.833-1.226-8.075,0.731-9.561,4.559c0,0.001,0,0.001,0,0.001c-1.549,3.993,0.442,8.469,4.413,10.009
			c11.762,4.564,9.193,3.567,12.819,4.974c0.002,0,0.003,0.001,0.005,0.001c3.96,1.535,8.46-0.439,10.004-4.415
			c1.4-3.609-0.096-7.595-3.314-9.469c-0.215-0.125-0.438-0.242-0.668-0.347l10.179-22.548c19.546-1.333,69.997-4.773,84.717-5.777
			C366.025,227.897,374.465,211.62,366.791,199.024z"/>
	</g>
</g>
<g>
</g>
<g>
</g>
<g>
</g>
<g>
</g>
<g>
</g>
<g>
</g>
<g>
</g>
<g>
</g>
<g>
</g>
<g>
</g>
<g>
</g>
<g>
</g>
<g>
</g>
<g>
</g>
<g>
</g>
</svg>
